<svg xmlns="http://www.w3.org/2000/svg" width="18" height="18" viewBox="0 0 600 600">
  <defs>
    <style>
      .cls-1 {
        fill: #fff;
      }

      .cls-1, .cls-2 {
        fill-rule: evenodd;
      }

      .cls-2 {
        fill: #535fff;
      }
    </style>
  </defs>
  <path id="Color_Fill_2" data-name="Color Fill 2" class="cls-1" d="M292,116c85.39-1.288,156.151,87.486,108,169-13.308,22.529-34.318,41.976-60,52l-32,8v1c91.954,7.374,175.656,70.433,189,154-37.764,28.344-69.689,55.216-122,71-101.81,30.72-229.472-14.939-272-72,15.43-67.546,65.179-116.5,125-140,17.548-6.895,46.942-5.671,64-14l-26-6c-22.232-6.97-43.233-22.226-56-39-7.575-9.953-14.982-23.082-19-36-20.271-65.169,20.7-120.489,64-139Z"/>
  <path id="Color_Fill_1" data-name="Color Fill 1" class="cls-2" d="M277,20c155.594-2.314,243.881,73.372,287,183,41.961,106.682-2.507,248.231-68,297-15.425-67.5-65.187-116.53-125-140-19.087-7.49-42.86-6.559-64-14v-2l1-2c29.565-.269,48.27-14.712,65-28,64.234-51.02,43.457-143.874-18-181-13.845-8.364-37.419-19.961-62-16-71.38,11.5-139.413,86.7-92,167,20.707,35.069,47.073,46.986,92,59v3l-2,1c-97.584,16.9-165.769,61.606-187,153-18.065-13.7-30.9-34.251-43-54C-12.355,326.306,22.165,162.61,114,89c29.851-23.927,63.075-45.169,104-58Z"/>
</svg>
